PathFileType	4	(X/Y/Z)	5_coords_data.trc
DataRate	CameraRate	NumFrames	NumMarkers	Units	OrigDataRate	OrigDataStartFrame	OrigNumFrames
30.0	30.0	5	21	m	30.0	1	67
Frame#	Time	THUMB_TIP	THUMB_IP	THUMB_MCP	THUMB_CMC	INDEX_TIP	INDEX_DIP	INDEX_PIP	INDEX_MCP	MIDDLE_TIP	MIDDLE_DIP	MIDDLE_PIP	MIDDLE_MCP	RING_TIP	RING_DIP	RING_PIP	RING_MCP	PINKY_TIP	PINKY_DIP	PINKY_PIP	PINKY_MCP	WRIST
X1	Y1	Z1	X2	Y2	Z2	X3	Y3	Z3	X4	Y4	Z4	X5	Y5	Z5	X6	Y6	Z6	X7	Y7	Z7	X8	Y8	Z8	X9	Y9	Z9	X10	Y10	Z10	X11	Y11	Z11	X12	Y12	Z12	X13	Y13	Z13	X14	Y14	Z14	X15	Y15	Z15	X16	Y16	Z16	X17	Y17	Z17	X18	Y18	Z18	X19	Y19	Z19	X20	Y20	Z20	X21	Y21	Z21
0	-2.749317978547796e-18	0.5028542374385222	-0.028297419405116764	-0.16393361649408006	0.4943089814157342	-0.027647921182789803	-0.1426132799215914	0.4697071398920202	-0.026345226195530702	-0.12359033642138018	0.46911204586607036	-0.029324228471108826	-0.0790857140935547	0.5734198241325714	0.023705095926588537	-0.16121682347186875	0.5573796956141465	0.024113206948782384	-0.15281755430687716	0.5353579349319028	0.02413617361250553	-0.14069108070626518	0.5011385553198741	0.013653642304278568	-0.11760890814084318	0.595748231982379	0.02611092341454191	-0.13549872528738338	0.5787130310249826	0.026582511415150778	-0.12936851051962842	0.5514402007758722	0.02751357578308089	-0.1191344790878816	0.5118734245259228	0.021011357727925395	-0.09942815272933245	0.6001274325436222	0.023933194085709375	-0.11156693896836509	0.583367126377792	0.02490984265595131	-0.10499896402947581	0.5600216257992263	0.026670042003358763	-0.09650960127402813	0.5227236207835417	0.019723196865912507	-0.08253387236687248	0.6000474075865602	0.011435310089609407	-0.08094571308894011	0.5836098397316787	0.012821551268407783	-0.07637573514475127	0.5632097831933492	0.014350958697080807	-0.07165232269715799	0.5283469712337567	0.006697078772976983	-0.06646715969321115	0.4622830810018609	-0.023011742144276925	-0.051989820119430985
1	0.03333333333333339	0.5032054986908813	-0.028796799051770794	-0.16380311172698003	0.4945028350206707	-0.028407592290585426	-0.14254018240996807	0.4698113130597825	-0.026984132885862877	-0.12364249719251136	0.46942399315559125	-0.028989936049842235	-0.07908111551555713	0.5729777694854087	0.02347750739077925	-0.16185209049494517	0.5569788569314115	0.023943801865435765	-0.15337757773299499	0.5350046318666468	0.023997875310836525	-0.14116527484346708	0.5009755617660923	0.013299431203365852	-0.11790153103962342	0.5959310409214726	0.026169789510476993	-0.1358990897274427	0.5788632530674673	0.026531007092334025	-0.1298525915980106	0.551685736557654	0.02736287896234002	-0.11935973042716108	0.5120854816332965	0.02019467916465545	-0.09995394153347356	0.6004164887953082	0.02390183351185171	-0.11182847981957064	0.5836927154170582	0.024859656423164567	-0.10516529895278448	0.5603804954663756	0.02654877229061381	-0.09657069206489682	0.5230019371033071	0.018805505236378806	-0.08324380105365603	0.6003109581916259	0.011085611747097546	-0.08116555596124625	0.5838752835593497	0.012433385613388137	-0.07657729866818852	0.56341668876472	0.01352104876330551	-0.07198655723553732	0.5284681024316924	0.006236051644222695	-0.06684762920550219	0.4622830810018609	-0.023011742144276925	-0.051989820119430985
2	0.06666666666666676	0.5034732527380497	-0.02915234229743091	-0.16368185429859844	0.49465626648291716	-0.02895731777579813	-0.14246340197961982	0.46989709909353394	-0.027444366343993498	-0.12366141782502846	0.4696618990222764	-0.0287345329347799	-0.07907251616671779	0.5726296908701184	0.023290906953740365	-0.16235375489290949	0.5566650157454521	0.02380244506697915	-0.15381750999702185	0.5347293174263944	0.023879193587281522	-0.14153626079671988	0.5008514062834828	0.013025212342370751	-0.11812441931152032	0.596057264060153	0.02617939777795708	-0.13620400364103702	0.5789652126541299	0.02645868267721674	-0.1302220492213752	0.5518619016895856	0.027215874943681606	-0.11953342233899161	0.5122424129673453	0.019564338349274513	-0.10035275441181218	0.6006098964819758	0.023827064056824887	-0.11204716936599474	0.5839136631303916	0.024771333493289527	-0.10531336307973935	0.5606274580428454	0.026406723473298643	-0.09663821862941332	0.5232046867838895	0.018096258331566584	-0.08378546816782217	0.600502526107185	0.01083572605866312	-0.08132053025179747	0.5840659722032651	0.012145373223378275	-0.07672438838415652	0.563568208068724	0.01288800390016287	-0.07224084244788864	0.528557145350578	0.0058842020293354835	-0.06713636424730335	0.4622830810018609	-0.023011742144276925	-0.051989820119430985
3	0.10000000000000014	0.5036663620620704	-0.029391740786202325	-0.16358417526758337	0.49477081926396727	-0.029335635281425243	-0.14239771330482404	0.469963494585931	-0.02776183054884873	-0.12366432650525633	0.46983388633551215	-0.028550805925885547	-0.0790633094814725	0.5723666366608219	0.023144969906266244	-0.16273730731436106	0.5564294498317524	0.023689997554483644	-0.15415191152627936	0.534524245895123	0.023782156178241087	-0.14181645935448012	0.5007627641095612	0.012823091804267772	-0.1182856848306722	0.596143489121654	0.026163858523856942	-0.13642027983162425	0.5790340540615855	0.026386122166837778	-0.13048581854197838	0.5519843873039711	0.027090982199794444	-0.11965861896702082	0.5123530913967302	0.019105638986454232	-0.10063908691499945	0.6007358657467736	0.023745535755745673	-0.11221251959019374	0.5840591821693435	0.024680692948759297	-0.10542917927124848	0.5607917421898934	0.026278636037762593	-0.09669689470837542	0.5233443898926696	0.01758252721401865	-0.08417514038826418	0.6006379120233026	0.010669885930563172	-0.08142044454866193	0.5841981495520241	0.011942203388698114	-0.07682529295446361	0.5636747838581367	0.012428306499519315	-0.0724244767391895	0.5286198039415497	0.005629684244555566	-0.06734406637367779	0.4622830810018609	-0.023011742144276925	-0.051989820119430985
4	0.13333333333333353	0.5037943170354049	-0.02953646467826887	-0.16351610606842712	0.4948499078518034	-0.02957348432710305	-0.14235018596317528	0.47001138170001744	-0.0279645687347031	-0.12366117825212847	0.4699485277191042	-0.028430337671739636	-0.07905547112092853	0.5721796520474691	0.023037594721725507	-0.16301680334001112	0.5562635539939447	0.023605621171777558	-0.154393859022515	0.534381680260287	0.023706951549483213	-0.14201714027080958	0.5007059158678937	0.012684641228594917	-0.11839326121215249	0.5962013424058911	0.026137922136128755	-0.1365567409430587	0.5790801941263661	0.02632455125060784	-0.13065492332776824	0.5520651163053153	0.026996834345427212	-0.11973965165167202	0.5124255448040661	0.01880023789511387	-0.10082753651803159	0.6008134064851516	0.023677454706332646	-0.11232171586167108	0.5841492996537015	0.024607166912584466	-0.1055067926248642	0.5608937858356733	0.026182257250361052	-0.09673866018475269	0.523432177884743	0.017245423888854083	-0.08443086699509178	0.600729231370114	0.010574664472773554	-0.08147416203388347	0.5842844070489496	0.011810880401214141	-0.07688727602872608	0.5637448052645158	0.012119149341153879	-0.0725465678149031	0.5286608362905586	0.00546027666998572	-0.06748119647771633	0.4622830810018609	-0.023011742144276925	-0.051989820119430985
